<?xml version="1.0" encoding="UTF-8" standalone="no"?>
<svg
   xmlns:dc="http://purl.org/dc/elements/1.1/"
   xmlns:cc="http://creativecommons.org/ns#"
   xmlns:rdf="http://www.w3.org/1999/02/22-rdf-syntax-ns#"
   xmlns:svg="http://www.w3.org/2000/svg"
   xmlns="http://www.w3.org/2000/svg"
   viewBox="0 0 403.10934 101.80973"
   height="101.80973"
   width="403.10934"
   xml:space="preserve"
   id="svg2"
   version="1.1"><metadata
     id="metadata8"><rdf:RDF><cc:Work
         rdf:about=""><dc:format>image/svg+xml</dc:format><dc:type
           rdf:resource="http://purl.org/dc/dcmitype/StillImage" /></cc:Work></rdf:RDF></metadata><defs
     id="defs6"><clipPath
       id="clipPath22"
       clipPathUnits="userSpaceOnUse"><path
         id="path20"
         d="M 0,76.357 H 302.332 V 0 H 0 Z" /></clipPath></defs><g
     transform="matrix(1.3333333,0,0,-1.3333333,0,101.80973)"
     id="g10"><g
       transform="translate(212.4128,45.4605)"
       id="g12"><path
         id="path14"
         style="fill:#424a52;fill-opacity:1;fill-rule:nonzero;stroke:none"
         d="M 0,0 -1.364,3.971 H -1.395 L -2.804,0 Z M -0.137,6.638 3.91,-4.183 H 1.439 l -0.818,2.41 h -4.046 l -0.848,-2.41 h -2.395 l 4.092,10.821 z" /></g><g
       id="g16"><g
         clip-path="url(#clipPath22)"
         id="g18"><g
           transform="translate(220.7781,47.7036)"
           id="g24"><path
             id="path26"
             style="fill:#424a52;fill-opacity:1;fill-rule:nonzero;stroke:none"
             d="m 0,0 c -0.344,0 -0.632,-0.079 -0.864,-0.235 -0.233,-0.157 -0.422,-0.359 -0.568,-0.607 -0.147,-0.247 -0.251,-0.519 -0.311,-0.818 -0.061,-0.298 -0.091,-0.593 -0.091,-0.886 0,-0.283 0.03,-0.571 0.091,-0.864 0.06,-0.293 0.159,-0.559 0.296,-0.796 0.136,-0.237 0.32,-0.432 0.552,-0.583 0.233,-0.151 0.516,-0.228 0.849,-0.228 0.516,0 0.912,0.145 1.191,0.432 0.277,0.288 0.452,0.675 0.522,1.16 H 3.743 C 3.602,-4.466 3.197,-5.259 2.531,-5.805 1.864,-6.35 1.01,-6.623 -0.03,-6.623 c -0.586,0 -1.124,0.099 -1.615,0.296 -0.49,0.197 -0.906,0.472 -1.25,0.826 -0.343,0.354 -0.611,0.774 -0.802,1.265 -0.193,0.49 -0.288,1.028 -0.288,1.614 0,0.606 0.088,1.169 0.264,1.689 0.177,0.521 0.438,0.971 0.781,1.349 0.343,0.379 0.762,0.675 1.257,0.887 0.496,0.213 1.062,0.318 1.699,0.318 0.463,0 0.911,-0.06 1.34,-0.182 C 1.785,1.318 2.17,1.134 2.508,0.887 2.847,0.639 3.122,0.33 3.334,-0.038 3.546,-0.407 3.667,-0.844 3.697,-1.349 H 1.591 C 1.449,-0.45 0.919,0 0,0" /></g><g
           transform="translate(229.4763,47.7036)"
           id="g28"><path
             id="path30"
             style="fill:#424a52;fill-opacity:1;fill-rule:nonzero;stroke:none"
             d="m 0,0 c -0.344,0 -0.632,-0.079 -0.864,-0.235 -0.233,-0.157 -0.422,-0.359 -0.568,-0.607 -0.147,-0.247 -0.251,-0.519 -0.311,-0.818 -0.061,-0.298 -0.091,-0.593 -0.091,-0.886 0,-0.283 0.03,-0.571 0.091,-0.864 0.06,-0.293 0.159,-0.559 0.296,-0.796 0.136,-0.237 0.32,-0.432 0.552,-0.583 0.233,-0.151 0.516,-0.228 0.849,-0.228 0.516,0 0.912,0.145 1.191,0.432 0.277,0.288 0.452,0.675 0.522,1.16 H 3.743 C 3.602,-4.466 3.197,-5.259 2.531,-5.805 1.864,-6.35 1.01,-6.623 -0.03,-6.623 c -0.586,0 -1.124,0.099 -1.615,0.296 -0.49,0.197 -0.906,0.472 -1.25,0.826 -0.343,0.354 -0.611,0.774 -0.802,1.265 -0.193,0.49 -0.288,1.028 -0.288,1.614 0,0.606 0.088,1.169 0.264,1.689 0.177,0.521 0.438,0.971 0.781,1.349 0.343,0.379 0.762,0.675 1.257,0.887 0.496,0.213 1.062,0.318 1.699,0.318 0.463,0 0.911,-0.06 1.34,-0.182 C 1.785,1.318 2.17,1.134 2.508,0.887 2.847,0.639 3.122,0.33 3.334,-0.038 3.546,-0.407 3.667,-0.844 3.697,-1.349 H 1.591 C 1.449,-0.45 0.919,0 0,0" /></g><g
           transform="translate(236.4324,44.271)"
           id="g32"><path
             id="path34"
             style="fill:#424a52;fill-opacity:1;fill-rule:nonzero;stroke:none"
             d="m 0,0 c 0.061,-0.298 0.164,-0.566 0.312,-0.804 0.145,-0.237 0.34,-0.426 0.583,-0.568 0.242,-0.142 0.545,-0.212 0.909,-0.212 0.364,0 0.669,0.07 0.917,0.212 0.247,0.142 0.444,0.331 0.591,0.568 0.146,0.238 0.25,0.506 0.31,0.804 0.061,0.298 0.091,0.604 0.091,0.917 0,0.312 -0.03,0.621 -0.091,0.924 C 3.562,2.145 3.458,2.412 3.312,2.645 3.165,2.877 2.968,3.066 2.721,3.213 2.473,3.359 2.168,3.433 1.804,3.433 1.44,3.433 1.137,3.359 0.895,3.213 0.652,3.066 0.457,2.877 0.312,2.645 0.164,2.412 0.061,2.145 0,1.841 -0.061,1.538 -0.091,1.229 -0.091,0.917 -0.091,0.604 -0.061,0.298 0,0 m -1.954,2.622 c 0.191,0.51 0.464,0.944 0.818,1.303 0.354,0.358 0.778,0.637 1.273,0.834 0.495,0.196 1.05,0.295 1.667,0.295 0.616,0 1.175,-0.099 1.675,-0.295 C 3.979,4.562 4.405,4.283 4.759,3.925 5.112,3.566 5.385,3.132 5.577,2.622 5.77,2.111 5.865,1.543 5.865,0.917 5.865,0.29 5.77,-0.275 5.577,-0.78 5.385,-1.286 5.112,-1.718 4.759,-2.076 4.405,-2.435 3.979,-2.71 3.479,-2.902 2.979,-3.094 2.42,-3.19 1.804,-3.19 c -0.617,0 -1.172,0.096 -1.667,0.288 -0.495,0.192 -0.919,0.467 -1.273,0.826 -0.354,0.358 -0.627,0.79 -0.818,1.296 -0.192,0.505 -0.288,1.07 -0.288,1.697 0,0.626 0.096,1.194 0.288,1.705" /></g><g
           transform="translate(248.9949,41.2779)"
           id="g36"><path
             id="path38"
             style="fill:#424a52;fill-opacity:1;fill-rule:nonzero;stroke:none"
             d="m 0,0 v 1.091 h -0.045 c -0.273,-0.454 -0.627,-0.783 -1.06,-0.985 -0.435,-0.202 -0.88,-0.303 -1.334,-0.303 -0.577,0 -1.048,0.076 -1.417,0.227 -0.37,0.152 -0.66,0.366 -0.872,0.645 -0.212,0.277 -0.361,0.615 -0.447,1.014 -0.086,0.4 -0.129,0.842 -0.129,1.327 v 4.819 h 2.153 V 3.41 c 0,-0.647 0.1,-1.13 0.302,-1.447 0.203,-0.318 0.561,-0.478 1.077,-0.478 0.585,0 1.009,0.174 1.272,0.523 0.263,0.348 0.395,0.922 0.395,1.72 V 7.835 H 2.046 L 2.046,0 Z" /></g><g
           transform="translate(254.7234,49.1128)"
           id="g40"><path
             id="path42"
             style="fill:#424a52;fill-opacity:1;fill-rule:nonzero;stroke:none"
             d="m 0,0 v -1.091 h 0.046 c 0.272,0.454 0.626,0.785 1.06,0.992 0.434,0.207 0.879,0.311 1.333,0.311 0.577,0 1.049,-0.078 1.417,-0.234 0.37,-0.158 0.66,-0.374 0.873,-0.653 0.211,-0.277 0.36,-0.616 0.446,-1.014 0.086,-0.4 0.129,-0.842 0.129,-1.327 V -7.835 H 3.152 v 4.425 c 0,0.646 -0.101,1.129 -0.303,1.447 -0.203,0.318 -0.561,0.478 -1.076,0.478 -0.586,0 -1.01,-0.174 -1.273,-0.523 C 0.237,-2.356 0.106,-2.93 0.106,-3.729 V -7.835 H -2.046 V 0 Z" /></g><g
           transform="translate(265.9675,49.1128)"
           id="g44"><path
             id="path46"
             style="fill:#424a52;fill-opacity:1;fill-rule:nonzero;stroke:none"
             d="m 0,0 v -1.439 h -1.576 v -3.88 c 0,-0.364 0.06,-0.607 0.181,-0.728 0.123,-0.121 0.365,-0.182 0.728,-0.182 0.122,0 0.237,0.005 0.349,0.015 0.111,0.011 0.217,0.026 0.318,0.046 v -1.667 c -0.182,-0.03 -0.384,-0.051 -0.606,-0.061 -0.222,-0.009 -0.44,-0.015 -0.652,-0.015 -0.333,0 -0.649,0.023 -0.947,0.068 -0.298,0.046 -0.561,0.134 -0.788,0.266 -0.227,0.131 -0.406,0.318 -0.538,0.56 -0.131,0.243 -0.197,0.561 -0.197,0.955 v 4.623 H -5.031 V 0 h 1.303 v 2.349 h 2.152 l 0,-2.349 z" /></g><g
           transform="translate(271.8786,45.1118)"
           id="g48"><path
             id="path50"
             style="fill:#424a52;fill-opacity:1;fill-rule:nonzero;stroke:none"
             d="m 0,0 c -0.091,-0.081 -0.205,-0.144 -0.341,-0.189 -0.137,-0.045 -0.283,-0.083 -0.439,-0.114 -0.157,-0.03 -0.322,-0.055 -0.493,-0.076 -0.172,-0.02 -0.343,-0.045 -0.515,-0.075 -0.162,-0.03 -0.321,-0.071 -0.478,-0.122 -0.157,-0.05 -0.293,-0.118 -0.409,-0.204 -0.116,-0.086 -0.21,-0.195 -0.28,-0.326 -0.071,-0.131 -0.107,-0.298 -0.107,-0.5 0,-0.192 0.036,-0.354 0.107,-0.485 0.07,-0.132 0.167,-0.235 0.288,-0.311 0.121,-0.076 0.263,-0.128 0.424,-0.159 0.162,-0.031 0.328,-0.045 0.5,-0.045 0.425,0 0.753,0.07 0.985,0.211 0.233,0.142 0.404,0.311 0.516,0.508 0.11,0.198 0.179,0.397 0.204,0.599 C -0.013,-1.086 0,-0.924 0,-0.803 Z m -4.971,1.592 c 0.031,0.505 0.157,0.924 0.379,1.258 0.222,0.333 0.505,0.6 0.849,0.802 0.343,0.202 0.729,0.346 1.159,0.432 0.43,0.086 0.861,0.129 1.296,0.129 0.393,0 0.793,-0.027 1.197,-0.083 C 0.312,4.074 0.682,3.966 1.016,3.804 1.349,3.643 1.621,3.417 1.834,3.13 2.046,2.842 2.151,2.46 2.151,1.985 v -4.076 c 0,-0.354 0.021,-0.692 0.062,-1.015 0.04,-0.324 0.11,-0.567 0.212,-0.728 H 0.242 c -0.04,0.121 -0.073,0.245 -0.098,0.371 -0.026,0.126 -0.043,0.255 -0.053,0.387 -0.344,-0.354 -0.748,-0.602 -1.212,-0.742 -0.465,-0.142 -0.941,-0.213 -1.425,-0.213 -0.374,0 -0.723,0.046 -1.046,0.136 -0.323,0.091 -0.606,0.233 -0.848,0.424 -0.243,0.193 -0.432,0.435 -0.569,0.728 -0.137,0.293 -0.204,0.641 -0.204,1.046 0,0.444 0.078,0.81 0.234,1.098 0.157,0.288 0.359,0.518 0.607,0.69 0.247,0.172 0.53,0.301 0.849,0.387 0.318,0.085 0.638,0.154 0.961,0.204 0.324,0.05 0.642,0.091 0.956,0.122 0.312,0.03 0.59,0.075 0.833,0.135 C -0.53,1 -0.339,1.089 -0.197,1.205 -0.056,1.321 0.01,1.49 0,1.713 0,1.945 -0.038,2.129 -0.114,2.266 -0.189,2.402 -0.291,2.508 -0.417,2.584 -0.543,2.66 -0.689,2.71 -0.856,2.735 c -0.167,0.026 -0.346,0.038 -0.539,0.038 -0.423,0 -0.757,-0.09 -1,-0.272 C -2.637,2.318 -2.778,2.016 -2.819,1.592 Z" /></g><g
           transform="translate(277.7429,49.1128)"
           id="g52"><path
             id="path54"
             style="fill:#424a52;fill-opacity:1;fill-rule:nonzero;stroke:none"
             d="m 0,0 v -1.091 h 0.046 c 0.272,0.454 0.626,0.785 1.06,0.992 0.434,0.207 0.879,0.311 1.333,0.311 0.577,0 1.049,-0.078 1.417,-0.234 0.37,-0.158 0.66,-0.374 0.873,-0.653 0.211,-0.277 0.36,-0.616 0.446,-1.014 0.086,-0.4 0.129,-0.842 0.129,-1.327 V -7.835 H 3.152 v 4.425 c 0,0.646 -0.101,1.129 -0.303,1.447 -0.203,0.318 -0.561,0.478 -1.076,0.478 -0.586,0 -1.01,-0.174 -1.273,-0.523 C 0.237,-2.356 0.106,-2.93 0.106,-3.729 V -7.835 H -2.046 V 0 Z" /></g><g
           transform="translate(288.987,49.1128)"
           id="g56"><path
             id="path58"
             style="fill:#424a52;fill-opacity:1;fill-rule:nonzero;stroke:none"
             d="m 0,0 v -1.439 h -1.576 v -3.88 c 0,-0.364 0.06,-0.607 0.181,-0.728 0.123,-0.121 0.365,-0.182 0.728,-0.182 0.122,0 0.237,0.005 0.349,0.015 0.111,0.011 0.217,0.026 0.318,0.046 v -1.667 c -0.182,-0.03 -0.384,-0.051 -0.606,-0.061 -0.222,-0.009 -0.44,-0.015 -0.652,-0.015 -0.333,0 -0.649,0.023 -0.947,0.068 -0.298,0.046 -0.561,0.134 -0.788,0.266 -0.227,0.131 -0.406,0.318 -0.538,0.56 -0.131,0.243 -0.197,0.561 -0.197,0.955 v 4.623 H -5.031 V 0 h 1.303 v 2.349 h 2.152 l 0,-2.349 z" /></g><g
           transform="translate(291.8279,43.2251)"
           id="g60"><path
             id="path62"
             style="fill:#424a52;fill-opacity:1;fill-rule:nonzero;stroke:none"
             d="m 0,0 c 0.097,-0.167 0.22,-0.303 0.372,-0.409 0.151,-0.107 0.325,-0.185 0.523,-0.235 0.197,-0.05 0.401,-0.076 0.613,-0.076 0.152,0 0.311,0.018 0.477,0.053 0.167,0.035 0.319,0.091 0.455,0.167 0.137,0.076 0.25,0.177 0.341,0.303 0.091,0.127 0.137,0.286 0.137,0.477 0,0.324 -0.215,0.566 -0.645,0.728 -0.429,0.161 -1.028,0.323 -1.795,0.485 -0.314,0.07 -0.62,0.153 -0.917,0.25 -0.298,0.096 -0.563,0.222 -0.795,0.379 -0.233,0.156 -0.42,0.354 -0.561,0.591 -0.142,0.237 -0.213,0.527 -0.213,0.871 0,0.505 0.099,0.919 0.296,1.243 0.197,0.323 0.457,0.578 0.78,0.765 0.324,0.187 0.687,0.318 1.091,0.394 C 0.563,6.062 0.978,6.1 1.402,6.1 1.826,6.1 2.238,6.06 2.638,5.979 3.036,5.897 3.393,5.761 3.706,5.569 4.019,5.377 4.279,5.122 4.486,4.804 4.693,4.486 4.817,4.084 4.857,3.6 H 2.812 C 2.781,4.014 2.625,4.294 2.342,4.44 2.059,4.587 1.726,4.66 1.342,4.66 1.221,4.66 1.089,4.652 0.947,4.638 0.806,4.622 0.677,4.589 0.562,4.539 0.445,4.488 0.347,4.415 0.266,4.319 0.185,4.223 0.145,4.094 0.145,3.933 0.145,3.74 0.215,3.584 0.356,3.463 0.498,3.342 0.683,3.243 0.91,3.167 1.137,3.092 1.397,3.023 1.69,2.963 1.983,2.902 2.281,2.836 2.584,2.766 2.897,2.695 3.203,2.609 3.501,2.508 3.799,2.407 4.064,2.273 4.297,2.106 4.529,1.939 4.716,1.732 4.857,1.485 4.999,1.237 5.069,0.932 5.069,0.568 5.069,0.053 4.966,-0.379 4.759,-0.728 4.552,-1.076 4.281,-1.356 3.948,-1.568 3.615,-1.78 3.233,-1.93 2.804,-2.016 2.374,-2.102 1.937,-2.145 1.493,-2.145 c -0.455,0 -0.899,0.046 -1.334,0.137 -0.434,0.091 -0.82,0.242 -1.159,0.454 -0.339,0.213 -0.616,0.493 -0.833,0.842 -0.218,0.349 -0.336,0.785 -0.356,1.311 h 2.045 C -0.144,0.366 -0.096,0.167 0,0" /></g><g
           transform="translate(11.7689,61.5559)"
           id="g64"><path
             id="path66"
             style="fill:#b20d35;fill-opacity:1;fill-rule:nonzero;stroke:none"
             d="M 0,0 H 25.82 V 5.319 H -6.167 V -24.103 H 0 Z" /></g><g
           transform="translate(43.1576,55.9873)"
           id="g68"><path
             id="path70"
             style="fill:#b20d35;fill-opacity:1;fill-rule:nonzero;stroke:none"
             d="m 0,0 v -24.101 h -25.82 v -5.317 H 6.161 L 6.161,0 Z" /></g><g
           transform="translate(17.3375,53.0809)"
           id="g72"><path
             id="path74"
             style="fill:#424a52;fill-opacity:1;fill-rule:nonzero;stroke:none"
             d="M 0,0 V -15.628 H 16.828 Z" /></g><g
           transform="translate(37.589,39.9676)"
           id="g76"><path
             id="path78"
             style="fill:#424a52;fill-opacity:1;fill-rule:nonzero;stroke:none"
             d="M 0,0 V 16.02 H -17.252 Z" /></g><g
           transform="translate(18.2908,55.9873)"
           id="g80"><path
             id="path82"
             style="fill:#424a52;fill-opacity:1;fill-rule:nonzero;stroke:none"
             d="m 0,0 h -0.953 v -1.009 l 18.874,-17.525 h 1.377 v 0.616 z" /></g><g
           transform="translate(97.9796,65.5146)"
           id="g84"><path
             id="path86"
             style="fill:#b20d35;fill-opacity:1;fill-rule:nonzero;stroke:none"
             d="m 0,0 c 0,-1.949 -0.255,-3.828 -0.771,-5.647 -0.513,-1.818 -1.25,-3.505 -2.2,-5.064 -0.959,-1.563 -2.097,-2.967 -3.416,-4.215 -1.321,-1.249 -2.772,-2.312 -4.35,-3.195 1.578,-0.879 3.029,-1.951 4.35,-3.221 1.319,-1.267 2.457,-2.678 3.416,-4.239 0.95,-1.559 1.687,-3.24 2.2,-5.04 C -0.255,-32.417 0,-34.29 0,-36.235 v -2.534 h -5.068 v 2.534 c 0,2.129 -0.403,4.149 -1.207,6.056 -0.808,1.909 -1.921,3.56 -3.336,4.957 -1.41,1.395 -3.065,2.503 -4.95,3.332 -1.899,0.826 -3.922,1.237 -6.086,1.237 h -15.587 v -18.116 h -5.013 V 2.476 h 5.013 V -15.64 h 15.587 c 2.164,0 4.187,0.412 6.086,1.238 1.885,0.826 3.54,1.946 4.95,3.36 1.415,1.411 2.528,3.062 3.336,4.956 0.804,1.888 1.207,3.917 1.207,6.086 v 2.476 l 5.068,0 z" /></g><g
           transform="translate(108.1047,55.5071)"
           id="g88"><path
             id="path90"
             style="fill:#b20d35;fill-opacity:1;fill-rule:nonzero;stroke:none"
             d="M 0,0 C 0.149,-0.008 0.265,-0.019 0.381,-0.019 2.786,-0.02 5.191,-0.032 7.596,-0.015 9.871,0.001 11.682,1.8 11.698,4.027 11.715,6.224 9.874,8.033 7.589,8.048 5.785,8.06 3.981,8.051 2.178,8.051 1.461,8.052 0.745,8.051 0,8.051 Z m -0.004,-24.33 h 0.485 c 3.989,10e-4 7.978,-0.004 11.967,0.006 0.518,0.001 1.039,0.054 1.554,0.115 5.695,0.671 9.802,6.398 8.51,11.859 -1.125,4.755 -5.132,7.879 -10.158,7.896 -3.929,0.013 -7.857,0.003 -11.786,0.003 H -0.004 Z M -4.55,12.483 h 6.718 c 1.724,0 3.449,0.002 5.173,0 6.743,-0.009 10.924,-6.568 7.921,-12.426 -0.043,-0.083 -0.079,-0.17 -0.109,-0.235 1.02,-0.332 2.053,-0.584 3.015,-0.993 4.871,-2.073 7.848,-5.694 8.828,-10.74 1.514,-7.795 -3.965,-15.291 -12.042,-16.627 -0.728,-0.12 -1.471,-0.21 -2.207,-0.212 -5.594,-0.018 -11.187,-0.01 -16.78,-0.01 H -4.55 Z" /></g><g
           transform="translate(144.2456,26.7454)"
           id="g92"><path
             id="path94"
             style="fill:#b20d35;fill-opacity:1;fill-rule:nonzero;stroke:none"
             d="m 0,0 h -4.563 v 0.617 c 0,8.387 -0.004,16.773 10e-4,25.16 0.005,7.524 5.177,13.686 12.9,15.15 5.131,0.972 9.73,-0.29 13.649,-3.627 2.993,-2.548 4.677,-5.769 5.175,-9.557 0.087,-0.663 0.106,-1.337 0.106,-2.007 0.007,-8.386 0.005,-16.773 0.005,-25.16 V 0.027 H 22.755 V 0.715 C 22.751,9.293 22.776,17.871 22.734,26.449 22.709,31.512 18.262,36.095 13.003,36.77 7.445,37.483 2.21,34.319 0.615,29.432 0.235,28.266 0.034,26.998 0.026,25.775 -0.024,17.427 0,9.079 0,0.731 Z" /></g><g
           transform="translate(209.7401,35.7298)"
           id="g96"><path
             id="path98"
             style="fill:#b20d35;fill-opacity:1;fill-rule:nonzero;stroke:none"
             d="m 0,0 c 1.074,-1.012 2.118,-1.994 3.161,-2.977 -7.554,-7.333 -21.181,-8.41 -30.187,-0.676 -9.401,8.072 -9.741,21.45 -0.853,29.836 8.789,8.293 22.862,7.874 31.007,0.119 -1.049,-0.995 -2.098,-1.99 -3.147,-2.986 -7.543,6.861 -19.028,5.745 -25.215,-0.68 C -31.368,16.266 -31.188,6.353 -24.8,0.222 -18.32,-5.996 -7.305,-6.593 0,0" /></g><g
           transform="translate(8.3298,10.6363)"
           id="g100"><path
             id="path102"
             style="fill:#424a52;fill-opacity:1;fill-rule:nonzero;stroke:none"
             d="m 0,0 c 0.354,0 0.63,0.096 0.829,0.286 0.199,0.192 0.299,0.455 0.299,0.791 0,0.196 -0.036,0.36 -0.109,0.488 C 0.945,1.694 0.849,1.797 0.729,1.873 0.607,1.948 0.469,2.002 0.312,2.032 0.154,2.063 -0.008,2.079 -0.177,2.079 H -2.002 V 0 Z m -0.403,2.752 c 0.454,0 0.781,0.08 0.98,0.24 0.198,0.159 0.299,0.4 0.299,0.719 0,0.213 -0.034,0.382 -0.102,0.505 C 0.707,4.339 0.614,4.435 0.497,4.502 0.379,4.569 0.243,4.613 0.089,4.633 -0.065,4.652 -0.229,4.662 -0.403,4.662 h -1.599 v -1.91 z m -0.219,2.583 c 0.129,0 0.268,-0.001 0.416,-0.004 C -0.058,5.328 0.09,5.319 0.236,5.306 0.382,5.292 0.518,5.271 0.645,5.242 0.771,5.215 0.878,5.173 0.968,5.116 1.164,4.999 1.331,4.836 1.469,4.628 1.606,4.421 1.675,4.166 1.675,3.862 1.675,3.543 1.598,3.267 1.443,3.034 1.289,2.801 1.069,2.629 0.783,2.517 V 2.499 C 1.153,2.421 1.437,2.253 1.633,1.994 1.829,1.736 1.928,1.423 1.928,1.052 1.928,0.833 1.888,0.62 1.81,0.413 1.73,0.205 1.614,0.021 1.46,-0.139 1.306,-0.299 1.115,-0.428 0.888,-0.525 0.661,-0.624 0.398,-0.673 0.102,-0.673 h -2.904 v 6.008 z" /></g><g
           transform="translate(12.8913,12.0708)"
           id="g104"><path
             id="path106"
             style="fill:#424a52;fill-opacity:1;fill-rule:nonzero;stroke:none"
             d="M 0,0 C 0.078,-0.294 0.201,-0.56 0.37,-0.795 0.538,-1.03 0.754,-1.22 1.018,-1.362 1.281,-1.506 1.596,-1.577 1.96,-1.577 c 0.365,0 0.679,0.071 0.942,0.215 0.264,0.142 0.48,0.332 0.649,0.567 0.168,0.235 0.291,0.501 0.37,0.795 0.078,0.295 0.118,0.594 0.118,0.896 0,0.303 -0.04,0.602 -0.118,0.897 C 3.842,2.087 3.719,2.353 3.551,2.588 3.382,2.823 3.166,3.013 2.902,3.156 2.639,3.299 2.325,3.37 1.96,3.37 1.596,3.37 1.281,3.299 1.018,3.156 0.754,3.013 0.538,2.823 0.37,2.588 0.201,2.353 0.078,2.087 0,1.793 -0.079,1.498 -0.118,1.199 -0.118,0.896 -0.118,0.594 -0.079,0.295 0,0 m -0.736,2.079 c 0.12,0.378 0.3,0.714 0.542,1.005 0.241,0.292 0.542,0.524 0.9,0.699 0.359,0.174 0.777,0.261 1.254,0.261 0.477,0 0.894,-0.087 1.254,-0.261 C 3.573,3.608 3.873,3.376 4.114,3.084 4.355,2.793 4.536,2.457 4.657,2.079 4.777,1.7 4.838,1.306 4.838,0.896 4.838,0.487 4.777,0.093 4.657,-0.286 4.536,-0.664 4.355,-1 4.114,-1.291 3.873,-1.583 3.573,-1.814 3.214,-1.985 2.854,-2.156 2.437,-2.242 1.96,-2.242 c -0.477,0 -0.895,0.086 -1.254,0.257 -0.358,0.171 -0.659,0.402 -0.9,0.694 -0.242,0.291 -0.422,0.627 -0.542,1.005 -0.121,0.379 -0.182,0.773 -0.182,1.182 0,0.41 0.061,0.804 0.182,1.183" /></g><g
           transform="translate(23.8718,15.9712)"
           id="g108"><path
             id="path110"
             style="fill:#424a52;fill-opacity:1;fill-rule:nonzero;stroke:none"
             d="m 0,0 v -0.673 h -3.349 v -1.91 h 3.121 V -3.256 H -3.349 V -5.335 H 0.025 V -6.008 H -4.148 V 0 Z" /></g><g
           transform="translate(26.6824,15.9712)"
           id="g112"><path
             id="path114"
             style="fill:#424a52;fill-opacity:1;fill-rule:nonzero;stroke:none"
             d="M 0,0 V -2.995 L 3.046,0 H 4.081 L 1.548,-2.423 4.182,-6.008 H 3.172 L 1.001,-2.97 0,-3.904 V -6.008 H -0.8 V 0 Z" /></g><g
           transform="translate(33.3132,15.9712)"
           id="g116"><path
             id="path118"
             style="fill:#424a52;fill-opacity:1;fill-rule:nonzero;stroke:none"
             d="M 0,0 V -2.583 H 3.163 V 0 h 0.8 v -6.008 h -0.8 v 2.752 H 0 V -6.008 H -0.8 L -0.8,0 Z" /></g><g
           transform="translate(40.1882,12.0708)"
           id="g120"><path
             id="path122"
             style="fill:#424a52;fill-opacity:1;fill-rule:nonzero;stroke:none"
             d="M 0,0 C 0.078,-0.294 0.201,-0.56 0.37,-0.795 0.538,-1.03 0.754,-1.22 1.018,-1.362 1.281,-1.506 1.596,-1.577 1.96,-1.577 c 0.365,0 0.679,0.071 0.942,0.215 0.264,0.142 0.48,0.332 0.649,0.567 0.168,0.235 0.291,0.501 0.37,0.795 0.078,0.295 0.118,0.594 0.118,0.896 0,0.303 -0.04,0.602 -0.118,0.897 C 3.842,2.087 3.719,2.353 3.551,2.588 3.382,2.823 3.166,3.013 2.902,3.156 2.639,3.299 2.325,3.37 1.96,3.37 1.596,3.37 1.281,3.299 1.018,3.156 0.754,3.013 0.538,2.823 0.37,2.588 0.201,2.353 0.078,2.087 0,1.793 -0.079,1.498 -0.118,1.199 -0.118,0.896 -0.118,0.594 -0.079,0.295 0,0 m -0.736,2.079 c 0.12,0.378 0.3,0.714 0.542,1.005 0.241,0.292 0.542,0.524 0.9,0.699 0.359,0.174 0.777,0.261 1.254,0.261 0.477,0 0.894,-0.087 1.254,-0.261 C 3.573,3.608 3.873,3.376 4.114,3.084 4.355,2.793 4.536,2.457 4.657,2.079 4.777,1.7 4.838,1.306 4.838,0.896 4.838,0.487 4.777,0.093 4.657,-0.286 4.536,-0.664 4.355,-1 4.114,-1.291 3.873,-1.583 3.573,-1.814 3.214,-1.985 2.854,-2.156 2.437,-2.242 1.96,-2.242 c -0.477,0 -0.895,0.086 -1.254,0.257 -0.358,0.171 -0.659,0.402 -0.9,0.694 -0.242,0.291 -0.422,0.627 -0.542,1.005 -0.121,0.379 -0.182,0.773 -0.182,1.182 0,0.41 0.061,0.804 0.182,1.183" /></g><g
           transform="translate(51.2029,10.4048)"
           id="g124"><path
             id="path126"
             style="fill:#424a52;fill-opacity:1;fill-rule:nonzero;stroke:none"
             d="m 0,0 c -0.41,-0.384 -0.993,-0.576 -1.751,-0.576 -0.773,0 -1.378,0.183 -1.813,0.552 -0.435,0.367 -0.652,0.952 -0.652,1.753 v 3.837 h 0.799 V 1.729 c 0,-0.538 0.144,-0.946 0.43,-1.224 0.286,-0.277 0.698,-0.416 1.236,-0.416 0.511,0 0.899,0.139 1.166,0.416 0.266,0.278 0.399,0.686 0.399,1.224 v 3.837 h 0.8 V 1.729 C 0.614,0.961 0.409,0.385 0,0" /></g><g
           transform="translate(56.2419,10.6363)"
           id="g128"><path
             id="path130"
             style="fill:#424a52;fill-opacity:1;fill-rule:nonzero;stroke:none"
             d="M 0,0 C 0.09,0 0.202,0.007 0.337,0.021 0.472,0.035 0.614,0.069 0.766,0.122 0.917,0.176 1.067,0.253 1.216,0.354 1.364,0.455 1.498,0.592 1.615,0.766 1.733,0.939 1.83,1.157 1.906,1.418 1.981,1.679 2.02,1.994 2.02,2.365 2.02,2.724 1.984,3.045 1.914,3.328 1.844,3.611 1.729,3.853 1.569,4.052 1.409,4.251 1.203,4.402 0.951,4.506 0.698,4.61 0.387,4.662 0.017,4.662 H -1.329 L -1.329,0 Z M -0.067,5.335 C 0.858,5.335 1.57,5.1 2.07,4.628 2.569,4.157 2.819,3.439 2.819,2.475 2.819,1.97 2.763,1.521 2.65,1.132 2.538,0.742 2.364,0.414 2.129,0.147 1.894,-0.119 1.593,-0.322 1.229,-0.463 0.864,-0.603 0.432,-0.673 -0.067,-0.673 h -2.062 v 6.008 z" /></g><path
           id="path132"
           style="fill:#424a52;fill-opacity:1;fill-rule:nonzero;stroke:none"
           d="m 61.888,9.963 h -0.799 v 6.008 h 0.799 z" /><g
           transform="translate(65.0945,15.9712)"
           id="g134"><path
             id="path136"
             style="fill:#424a52;fill-opacity:1;fill-rule:nonzero;stroke:none"
             d="M 0,0 3.164,-4.872 H 3.181 V 0 H 3.938 V -6.008 H 3.063 l -3.139,4.821 H -0.093 V -6.008 H -0.851 V 0 Z" /></g><g
           transform="translate(74.9646,10.0347)"
           id="g138"><path
             id="path140"
             style="fill:#424a52;fill-opacity:1;fill-rule:nonzero;stroke:none"
             d="m 0,0 c -0.348,-0.137 -0.698,-0.206 -1.052,-0.206 -0.449,0 -0.849,0.083 -1.203,0.248 -0.353,0.166 -0.653,0.389 -0.9,0.669 -0.247,0.281 -0.435,0.603 -0.564,0.968 -0.13,0.365 -0.193,0.743 -0.193,1.135 0,0.439 0.059,0.855 0.181,1.25 0.12,0.396 0.299,0.743 0.538,1.04 0.238,0.297 0.536,0.534 0.892,0.71 0.356,0.177 0.773,0.266 1.249,0.266 0.325,0 0.633,-0.038 0.922,-0.114 C 0.158,5.891 0.417,5.771 0.644,5.608 0.871,5.445 1.062,5.239 1.216,4.99 1.37,4.74 1.476,4.438 1.531,4.086 H 0.732 C 0.693,4.315 0.62,4.514 0.514,4.679 0.407,4.844 0.275,4.98 0.118,5.087 -0.039,5.193 -0.217,5.273 -0.416,5.327 -0.615,5.38 -0.827,5.406 -1.052,5.406 -1.416,5.406 -1.729,5.334 -1.99,5.187 -2.251,5.042 -2.464,4.85 -2.629,4.611 -2.795,4.373 -2.917,4.101 -2.995,3.795 -3.074,3.489 -3.113,3.177 -3.113,2.857 c 0,-0.314 0.045,-0.616 0.134,-0.905 0.09,-0.289 0.222,-0.544 0.396,-0.765 0.174,-0.222 0.389,-0.399 0.644,-0.531 0.254,-0.132 0.55,-0.197 0.887,-0.197 0.315,0 0.592,0.051 0.833,0.151 0.241,0.101 0.445,0.241 0.611,0.416 0.165,0.177 0.29,0.385 0.374,0.623 0.084,0.239 0.121,0.496 0.109,0.77 H -1.043 V 3.093 H 1.591 V -0.071 H 1.086 L 0.875,0.678 C 0.64,0.363 0.348,0.138 0,0" /></g><path
           id="path142"
           style="fill:#424a52;fill-opacity:1;fill-rule:nonzero;stroke:none"
           d="m 89.016,11.966 h -4.207 v 0.673 h 4.207 z" /><g
           transform="translate(101.3523,15.9712)"
           id="g144"><path
             id="path146"
             style="fill:#424a52;fill-opacity:1;fill-rule:nonzero;stroke:none"
             d="m 0,0 v -0.673 h -3.146 v -1.91 h 2.759 v -0.673 h -2.759 v -2.752 h -0.8 V 0 Z" /></g><path
           id="path148"
           style="fill:#424a52;fill-opacity:1;fill-rule:nonzero;stroke:none"
           d="m 104.087,9.963 h -0.799 v 6.008 h 0.799 z" /><g
           transform="translate(109.4607,15.1509)"
           id="g150"><path
             id="path152"
             style="fill:#424a52;fill-opacity:1;fill-rule:nonzero;stroke:none"
             d="M 0,0 C -0.267,0.193 -0.607,0.29 -1.022,0.29 -1.191,0.29 -1.356,0.273 -1.52,0.24 -1.682,0.206 -1.826,0.15 -1.953,0.071 -2.079,-0.007 -2.18,-0.112 -2.256,-0.244 -2.331,-0.376 -2.369,-0.54 -2.369,-0.736 c 0,-0.185 0.055,-0.335 0.164,-0.451 0.109,-0.115 0.255,-0.209 0.437,-0.281 0.183,-0.073 0.389,-0.134 0.619,-0.181 0.23,-0.048 0.464,-0.1 0.703,-0.156 0.238,-0.056 0.472,-0.122 0.702,-0.198 0.23,-0.075 0.436,-0.178 0.619,-0.307 0.182,-0.128 0.328,-0.292 0.437,-0.488 0.11,-0.196 0.165,-0.443 0.165,-0.74 0,-0.32 -0.073,-0.594 -0.215,-0.82 C 1.119,-4.586 0.935,-4.771 0.711,-4.914 0.486,-5.057 0.235,-5.161 -0.043,-5.226 -0.32,-5.29 -0.597,-5.322 -0.871,-5.322 c -0.337,0 -0.655,0.042 -0.955,0.126 -0.301,0.085 -0.565,0.212 -0.791,0.383 -0.228,0.171 -0.407,0.39 -0.539,0.657 -0.132,0.265 -0.198,0.581 -0.198,0.946 h 0.757 c 0,-0.253 0.05,-0.47 0.148,-0.652 0.098,-0.183 0.227,-0.332 0.386,-0.45 0.161,-0.119 0.347,-0.206 0.56,-0.261 0.214,-0.056 0.433,-0.084 0.657,-0.084 0.179,0 0.361,0.016 0.542,0.051 0.183,0.033 0.347,0.09 0.492,0.171 0.147,0.081 0.264,0.193 0.354,0.333 0.09,0.14 0.135,0.32 0.135,0.539 0,0.207 -0.055,0.375 -0.164,0.504 -0.11,0.129 -0.255,0.235 -0.438,0.316 -0.182,0.081 -0.388,0.147 -0.618,0.198 -0.23,0.05 -0.465,0.102 -0.703,0.155 -0.238,0.054 -0.473,0.116 -0.702,0.186 -0.231,0.069 -0.437,0.162 -0.619,0.277 -0.182,0.115 -0.329,0.264 -0.438,0.447 -0.109,0.181 -0.164,0.41 -0.164,0.685 0,0.303 0.063,0.565 0.186,0.786 0.123,0.222 0.287,0.405 0.492,0.548 0.205,0.143 0.437,0.249 0.698,0.319 0.261,0.071 0.529,0.106 0.804,0.106 0.308,0 0.594,-0.037 0.858,-0.11 C 0.133,0.781 0.364,0.666 0.563,0.509 0.763,0.353 0.92,0.154 1.034,-0.084 1.149,-0.322 1.213,-0.607 1.224,-0.938 H 0.467 C 0.422,-0.506 0.266,-0.193 0,0" /></g><g
           transform="translate(116.5535,15.1216)"
           id="g154"><path
             id="path156"
             style="fill:#424a52;fill-opacity:1;fill-rule:nonzero;stroke:none"
             d="m 0,0 c -0.306,0.213 -0.669,0.319 -1.09,0.319 -0.358,0 -0.666,-0.067 -0.921,-0.201 -0.256,-0.135 -0.466,-0.316 -0.631,-0.543 -0.166,-0.227 -0.288,-0.487 -0.366,-0.778 -0.079,-0.292 -0.118,-0.595 -0.118,-0.909 0,-0.342 0.039,-0.666 0.118,-0.972 0.078,-0.306 0.2,-0.572 0.366,-0.8 0.165,-0.226 0.377,-0.407 0.635,-0.542 0.258,-0.135 0.567,-0.202 0.926,-0.202 0.264,0 0.498,0.043 0.702,0.13 0.205,0.087 0.382,0.208 0.53,0.362 0.149,0.155 0.266,0.338 0.35,0.551 0.084,0.214 0.135,0.443 0.151,0.69 H 1.451 C 1.373,-3.652 1.112,-4.241 0.669,-4.662 0.226,-5.082 -0.38,-5.293 -1.148,-5.293 c -0.466,0 -0.873,0.08 -1.22,0.24 -0.349,0.159 -0.637,0.38 -0.867,0.66 -0.231,0.281 -0.403,0.612 -0.518,0.994 -0.115,0.38 -0.172,0.791 -0.172,1.228 0,0.438 0.062,0.849 0.185,1.233 0.123,0.384 0.304,0.719 0.543,1.005 0.238,0.287 0.535,0.512 0.891,0.678 0.357,0.165 0.765,0.248 1.225,0.248 0.314,0 0.611,-0.042 0.892,-0.127 C 0.091,0.782 0.341,0.659 0.56,0.496 0.778,0.334 0.961,0.13 1.106,-0.113 1.253,-0.357 1.348,-0.64 1.393,-0.959 H 0.594 C 0.504,-0.533 0.306,-0.213 0,0" /></g><g
           transform="translate(123.0867,12.4458)"
           id="g158"><path
             id="path160"
             style="fill:#424a52;fill-opacity:1;fill-rule:nonzero;stroke:none"
             d="M 0,0 -1.001,2.802 H -1.018 L -2.036,0 Z M -0.556,3.525 1.792,-2.482 H 0.909 l -0.656,1.809 h -2.542 l -0.673,-1.809 h -0.816 l 2.34,6.007 z" /></g><g
           transform="translate(129.5574,12.4458)"
           id="g162"><path
             id="path164"
             style="fill:#424a52;fill-opacity:1;fill-rule:nonzero;stroke:none"
             d="M 0,0 -1.001,2.802 H -1.018 L -2.036,0 Z M -0.556,3.525 1.792,-2.482 H 0.909 l -0.656,1.809 h -2.542 l -0.673,-1.809 h -0.816 l 2.34,6.007 z" /></g><g
           transform="translate(133.7566,15.9712)"
           id="g166"><path
             id="path168"
             style="fill:#424a52;fill-opacity:1;fill-rule:nonzero;stroke:none"
             d="M 0,0 V -5.335 H 3.181 V -6.008 H -0.8 L -0.8,0 Z" /></g><g
           transform="translate(145.0827,12.4458)"
           id="g170"><path
             id="path172"
             style="fill:#424a52;fill-opacity:1;fill-rule:nonzero;stroke:none"
             d="M 0,0 -1.001,2.802 H -1.018 L -2.036,0 Z M -0.556,3.525 1.792,-2.482 H 0.909 l -0.656,1.809 h -2.542 l -0.673,-1.809 h -0.816 l 2.34,6.007 z" /></g><g
           transform="translate(150.6111,10.6363)"
           id="g174"><path
             id="path176"
             style="fill:#424a52;fill-opacity:1;fill-rule:nonzero;stroke:none"
             d="M 0,0 C 0.09,0 0.202,0.007 0.337,0.021 0.472,0.035 0.614,0.069 0.766,0.122 0.917,0.176 1.067,0.253 1.216,0.354 1.364,0.455 1.498,0.592 1.615,0.766 1.733,0.939 1.83,1.157 1.906,1.418 1.981,1.679 2.02,1.994 2.02,2.365 2.02,2.724 1.984,3.045 1.914,3.328 1.844,3.611 1.729,3.853 1.569,4.052 1.409,4.251 1.203,4.402 0.951,4.506 0.698,4.61 0.387,4.662 0.017,4.662 H -1.329 L -1.329,0 Z M -0.067,5.335 C 0.858,5.335 1.57,5.1 2.07,4.628 2.569,4.157 2.819,3.439 2.819,2.475 2.819,1.97 2.763,1.521 2.65,1.132 2.538,0.742 2.364,0.414 2.129,0.147 1.894,-0.119 1.593,-0.322 1.229,-0.463 0.864,-0.603 0.432,-0.673 -0.067,-0.673 h -2.062 v 6.008 z" /></g><g
           transform="translate(156.8806,9.9634)"
           id="g178"><path
             id="path180"
             style="fill:#424a52;fill-opacity:1;fill-rule:nonzero;stroke:none"
             d="m 0,0 -2.112,6.008 h 0.858 L 0.463,0.8 H 0.479 L 2.213,6.008 H 3.046 L 0.908,0 Z" /></g><path
           id="path182"
           style="fill:#424a52;fill-opacity:1;fill-rule:nonzero;stroke:none"
           d="m 162.417,9.963 h -0.799 v 6.008 h 0.799 z" /><g
           transform="translate(168.9294,15.9712)"
           id="g184"><path
             id="path186"
             style="fill:#424a52;fill-opacity:1;fill-rule:nonzero;stroke:none"
             d="m 0,0 v -0.673 h -3.349 v -1.91 h 3.121 V -3.256 H -3.349 V -5.335 H 0.025 V -6.008 H -4.148 V 0 Z" /></g><g
           transform="translate(173.949,15.1509)"
           id="g188"><path
             id="path190"
             style="fill:#424a52;fill-opacity:1;fill-rule:nonzero;stroke:none"
             d="M 0,0 C -0.267,0.193 -0.607,0.29 -1.022,0.29 -1.191,0.29 -1.356,0.273 -1.52,0.24 -1.682,0.206 -1.826,0.15 -1.953,0.071 -2.079,-0.007 -2.18,-0.112 -2.256,-0.244 -2.331,-0.376 -2.369,-0.54 -2.369,-0.736 c 0,-0.185 0.055,-0.335 0.164,-0.451 0.109,-0.115 0.255,-0.209 0.437,-0.281 0.183,-0.073 0.389,-0.134 0.619,-0.181 0.23,-0.048 0.464,-0.1 0.703,-0.156 0.238,-0.056 0.472,-0.122 0.702,-0.198 0.23,-0.075 0.436,-0.178 0.619,-0.307 0.182,-0.128 0.328,-0.292 0.437,-0.488 0.11,-0.196 0.165,-0.443 0.165,-0.74 0,-0.32 -0.073,-0.594 -0.215,-0.82 C 1.119,-4.586 0.935,-4.771 0.711,-4.914 0.486,-5.057 0.235,-5.161 -0.043,-5.226 -0.32,-5.29 -0.597,-5.322 -0.871,-5.322 c -0.337,0 -0.655,0.042 -0.955,0.126 -0.301,0.085 -0.565,0.212 -0.791,0.383 -0.228,0.171 -0.407,0.39 -0.539,0.657 -0.132,0.265 -0.198,0.581 -0.198,0.946 h 0.757 c 0,-0.253 0.05,-0.47 0.148,-0.652 0.098,-0.183 0.227,-0.332 0.386,-0.45 0.161,-0.119 0.347,-0.206 0.56,-0.261 0.214,-0.056 0.433,-0.084 0.657,-0.084 0.179,0 0.361,0.016 0.542,0.051 0.183,0.033 0.347,0.09 0.492,0.171 0.147,0.081 0.264,0.193 0.354,0.333 0.09,0.14 0.135,0.32 0.135,0.539 0,0.207 -0.055,0.375 -0.164,0.504 -0.11,0.129 -0.255,0.235 -0.438,0.316 -0.182,0.081 -0.388,0.147 -0.618,0.198 -0.23,0.05 -0.465,0.102 -0.703,0.155 -0.238,0.054 -0.473,0.116 -0.702,0.186 -0.231,0.069 -0.437,0.162 -0.619,0.277 -0.182,0.115 -0.329,0.264 -0.438,0.447 -0.109,0.181 -0.164,0.41 -0.164,0.685 0,0.303 0.063,0.565 0.186,0.786 0.123,0.222 0.287,0.405 0.492,0.548 0.205,0.143 0.437,0.249 0.698,0.319 0.261,0.071 0.529,0.106 0.804,0.106 0.308,0 0.594,-0.037 0.858,-0.11 C 0.133,0.781 0.364,0.666 0.563,0.509 0.763,0.353 0.92,0.154 1.034,-0.084 1.149,-0.322 1.213,-0.607 1.224,-0.938 H 0.467 C 0.422,-0.506 0.266,-0.193 0,0" /></g><path
           id="path192"
           style="fill:#424a52;fill-opacity:1;fill-rule:nonzero;stroke:none"
           d="m 187.676,11.966 h -4.207 v 0.673 h 4.207 z" /><g
           transform="translate(198.8679,10.6363)"
           id="g194"><path
             id="path196"
             style="fill:#424a52;fill-opacity:1;fill-rule:nonzero;stroke:none"
             d="m 0,0 c 0.354,0 0.63,0.096 0.829,0.286 0.199,0.192 0.299,0.455 0.299,0.791 0,0.196 -0.036,0.36 -0.109,0.488 C 0.945,1.694 0.849,1.797 0.729,1.873 0.607,1.948 0.469,2.002 0.312,2.032 0.154,2.063 -0.008,2.079 -0.177,2.079 H -2.002 V 0 Z m -0.403,2.752 c 0.454,0 0.781,0.08 0.98,0.24 0.198,0.159 0.299,0.4 0.299,0.719 0,0.213 -0.034,0.382 -0.102,0.505 C 0.707,4.339 0.614,4.435 0.497,4.502 0.379,4.569 0.243,4.613 0.089,4.633 -0.065,4.652 -0.229,4.662 -0.403,4.662 h -1.599 v -1.91 z m -0.219,2.583 c 0.129,0 0.268,-0.001 0.416,-0.004 C -0.058,5.328 0.09,5.319 0.236,5.306 0.382,5.292 0.518,5.271 0.645,5.242 0.771,5.215 0.878,5.173 0.968,5.116 1.164,4.999 1.331,4.836 1.469,4.628 1.606,4.421 1.675,4.166 1.675,3.862 1.675,3.543 1.598,3.267 1.443,3.034 1.289,2.801 1.069,2.629 0.783,2.517 V 2.499 C 1.153,2.421 1.437,2.253 1.633,1.994 1.829,1.736 1.928,1.423 1.928,1.052 1.928,0.833 1.888,0.62 1.81,0.413 1.73,0.205 1.614,0.021 1.46,-0.139 1.306,-0.299 1.115,-0.428 0.888,-0.525 0.661,-0.624 0.398,-0.673 0.102,-0.673 h -2.904 v 6.008 z" /></g><g
           transform="translate(202.2087,15.2984)"
           id="g198"><path
             id="path200"
             style="fill:#424a52;fill-opacity:1;fill-rule:nonzero;stroke:none"
             d="M 0,0 V 0.673 H 4.805 V 0 H 2.803 v -5.335 h -0.8 V 0 Z" /></g><g
           transform="translate(213.2908,9.9634)"
           id="g202"><path
             id="path204"
             style="fill:#424a52;fill-opacity:1;fill-rule:nonzero;stroke:none"
             d="M 0,0 -1.372,5.049 H -1.389 L -2.777,0 H -3.61 l -1.54,6.008 h 0.816 L -3.155,1.01 h 0.016 l 1.346,4.998 h 0.867 L 0.403,1.01 h 0.018 l 1.22,4.998 H 2.44 L 0.833,0 Z" /></g><g
           transform="translate(222.7908,13.8423)"
           id="g206"><path
             id="path208"
             style="fill:#424a52;fill-opacity:1;fill-rule:nonzero;stroke:none"
             d="M 0,0 C 0.096,0.067 0.183,0.144 0.261,0.228 0.34,0.312 0.404,0.405 0.455,0.51 0.505,0.613 0.53,0.729 0.53,0.858 0.53,1.032 0.469,1.183 0.346,1.309 0.222,1.435 0.054,1.498 -0.159,1.498 -0.328,1.498 -0.485,1.446 -0.631,1.343 -0.776,1.238 -0.85,1.077 -0.85,0.858 c 0,-0.089 0.019,-0.179 0.055,-0.269 0.036,-0.09 0.083,-0.178 0.139,-0.265 0.056,-0.087 0.118,-0.173 0.185,-0.257 l 0.202,-0.252 C -0.185,-0.129 -0.095,-0.067 0,0 m -0.904,-1.22 c -0.126,-0.084 -0.238,-0.179 -0.332,-0.286 -0.096,-0.106 -0.172,-0.225 -0.228,-0.357 -0.056,-0.132 -0.084,-0.288 -0.084,-0.468 0,-0.151 0.032,-0.29 0.097,-0.416 0.064,-0.126 0.15,-0.233 0.257,-0.32 0.106,-0.087 0.228,-0.156 0.366,-0.206 0.137,-0.05 0.278,-0.076 0.425,-0.076 0.274,0 0.519,0.065 0.736,0.194 0.216,0.129 0.396,0.302 0.542,0.521 l -1.38,1.658 c -0.14,-0.079 -0.273,-0.16 -0.399,-0.244 m 1.438,-2.541 c -0.31,-0.14 -0.632,-0.211 -0.963,-0.211 -0.404,0 -0.729,0.062 -0.976,0.186 -0.247,0.123 -0.438,0.271 -0.573,0.445 -0.133,0.174 -0.222,0.354 -0.264,0.539 -0.042,0.185 -0.064,0.339 -0.064,0.463 0,0.235 0.038,0.443 0.115,0.622 0.075,0.18 0.176,0.341 0.302,0.485 0.126,0.142 0.275,0.271 0.447,0.386 0.171,0.116 0.351,0.224 0.542,0.325 -0.084,0.118 -0.165,0.229 -0.245,0.336 -0.078,0.107 -0.149,0.214 -0.213,0.324 -0.065,0.109 -0.116,0.224 -0.152,0.345 -0.037,0.12 -0.054,0.256 -0.054,0.409 0,0.162 0.029,0.318 0.087,0.466 0.059,0.149 0.146,0.281 0.261,0.396 0.115,0.114 0.257,0.206 0.425,0.273 0.169,0.068 0.362,0.101 0.581,0.101 0.185,0 0.366,-0.025 0.543,-0.075 C 0.51,2.003 0.665,1.926 0.8,1.822 0.935,1.718 1.042,1.589 1.124,1.435 1.205,1.28 1.246,1.103 1.246,0.9 1.246,0.721 1.215,0.554 1.153,0.4 1.091,0.245 1.007,0.104 0.9,-0.025 0.794,-0.154 0.674,-0.271 0.539,-0.374 0.404,-0.479 0.264,-0.572 0.118,-0.656 l 1.085,-1.322 c 0.112,0.315 0.177,0.626 0.194,0.935 H 2.079 C 2.062,-1.223 2.044,-1.376 2.024,-1.502 2.004,-1.628 1.979,-1.744 1.948,-1.851 1.917,-1.958 1.88,-2.063 1.835,-2.167 1.79,-2.271 1.736,-2.39 1.675,-2.524 l 1.17,-1.355 H 1.91 L 1.271,-3.13 C 1.091,-3.41 0.846,-3.621 0.534,-3.761" /></g><g
           transform="translate(233.3425,10.6363)"
           id="g210"><path
             id="path212"
             style="fill:#424a52;fill-opacity:1;fill-rule:nonzero;stroke:none"
             d="m 0,0 c 0.354,0 0.63,0.096 0.829,0.286 0.199,0.192 0.299,0.455 0.299,0.791 0,0.196 -0.036,0.36 -0.109,0.488 C 0.945,1.694 0.849,1.797 0.729,1.873 0.607,1.948 0.469,2.002 0.312,2.032 0.154,2.063 -0.008,2.079 -0.177,2.079 H -2.002 V 0 Z m -0.403,2.752 c 0.454,0 0.781,0.08 0.98,0.24 0.198,0.159 0.299,0.4 0.299,0.719 0,0.213 -0.034,0.382 -0.102,0.505 C 0.707,4.339 0.614,4.435 0.497,4.502 0.379,4.569 0.243,4.613 0.089,4.633 -0.065,4.652 -0.229,4.662 -0.403,4.662 h -1.599 v -1.91 z m -0.219,2.583 c 0.129,0 0.268,-0.001 0.416,-0.004 C -0.058,5.328 0.09,5.319 0.236,5.306 0.382,5.292 0.518,5.271 0.645,5.242 0.771,5.215 0.878,5.173 0.968,5.116 1.164,4.999 1.331,4.836 1.469,4.628 1.606,4.421 1.675,4.166 1.675,3.862 1.675,3.543 1.598,3.267 1.443,3.034 1.289,2.801 1.069,2.629 0.783,2.517 V 2.499 C 1.153,2.421 1.437,2.253 1.633,1.994 1.829,1.736 1.928,1.423 1.928,1.052 1.928,0.833 1.888,0.62 1.81,0.413 1.73,0.205 1.614,0.021 1.46,-0.139 1.306,-0.299 1.115,-0.428 0.888,-0.525 0.661,-0.624 0.398,-0.673 0.102,-0.673 h -2.904 v 6.008 z" /></g><g
           transform="translate(241.4714,15.9712)"
           id="g214"><path
             id="path216"
             style="fill:#424a52;fill-opacity:1;fill-rule:nonzero;stroke:none"
             d="m 0,0 v -0.673 h -3.349 v -1.91 h 3.121 V -3.256 H -3.349 V -5.335 H 0.025 V -6.008 H -4.148 V 0 Z" /></g><g
           transform="translate(244.282,15.9712)"
           id="g218"><path
             id="path220"
             style="fill:#424a52;fill-opacity:1;fill-rule:nonzero;stroke:none"
             d="M 0,0 V -5.335 H 3.181 V -6.008 H -0.8 L -0.8,0 Z" /></g><g
           transform="translate(252.2497,12.4458)"
           id="g222"><path
             id="path224"
             style="fill:#424a52;fill-opacity:1;fill-rule:nonzero;stroke:none"
             d="M 0,0 -1.001,2.802 H -1.018 L -2.036,0 Z M -0.556,3.525 1.792,-2.482 H 0.909 l -0.656,1.809 h -2.542 l -0.673,-1.809 h -0.816 l 2.34,6.007 z" /></g><g
           transform="translate(258.6579,15.1509)"
           id="g226"><path
             id="path228"
             style="fill:#424a52;fill-opacity:1;fill-rule:nonzero;stroke:none"
             d="M 0,0 C -0.267,0.193 -0.607,0.29 -1.022,0.29 -1.191,0.29 -1.356,0.273 -1.52,0.24 -1.682,0.206 -1.826,0.15 -1.953,0.071 -2.079,-0.007 -2.18,-0.112 -2.256,-0.244 -2.331,-0.376 -2.369,-0.54 -2.369,-0.736 c 0,-0.185 0.055,-0.335 0.164,-0.451 0.109,-0.115 0.255,-0.209 0.437,-0.281 0.183,-0.073 0.389,-0.134 0.619,-0.181 0.23,-0.048 0.464,-0.1 0.703,-0.156 0.238,-0.056 0.472,-0.122 0.702,-0.198 0.23,-0.075 0.436,-0.178 0.619,-0.307 0.182,-0.128 0.328,-0.292 0.437,-0.488 0.11,-0.196 0.165,-0.443 0.165,-0.74 0,-0.32 -0.073,-0.594 -0.215,-0.82 C 1.119,-4.586 0.935,-4.771 0.711,-4.914 0.486,-5.057 0.235,-5.161 -0.043,-5.226 -0.32,-5.29 -0.597,-5.322 -0.871,-5.322 c -0.337,0 -0.655,0.042 -0.955,0.126 -0.301,0.085 -0.565,0.212 -0.791,0.383 -0.228,0.171 -0.407,0.39 -0.539,0.657 -0.132,0.265 -0.198,0.581 -0.198,0.946 h 0.757 c 0,-0.253 0.05,-0.47 0.148,-0.652 0.098,-0.183 0.227,-0.332 0.386,-0.45 0.161,-0.119 0.347,-0.206 0.56,-0.261 0.214,-0.056 0.433,-0.084 0.657,-0.084 0.179,0 0.361,0.016 0.542,0.051 0.183,0.033 0.347,0.09 0.492,0.171 0.147,0.081 0.264,0.193 0.354,0.333 0.09,0.14 0.135,0.32 0.135,0.539 0,0.207 -0.055,0.375 -0.164,0.504 -0.11,0.129 -0.255,0.235 -0.438,0.316 -0.182,0.081 -0.388,0.147 -0.618,0.198 -0.23,0.05 -0.465,0.102 -0.703,0.155 -0.238,0.054 -0.473,0.116 -0.702,0.186 -0.231,0.069 -0.437,0.162 -0.619,0.277 -0.182,0.115 -0.328,0.264 -0.438,0.447 -0.109,0.181 -0.164,0.41 -0.164,0.685 0,0.303 0.063,0.565 0.186,0.786 0.123,0.222 0.287,0.405 0.492,0.548 0.205,0.143 0.437,0.249 0.698,0.319 0.261,0.071 0.529,0.106 0.804,0.106 0.308,0 0.594,-0.037 0.858,-0.11 C 0.133,0.781 0.364,0.666 0.563,0.509 0.763,0.353 0.92,0.154 1.034,-0.084 1.149,-0.322 1.213,-0.607 1.224,-0.938 H 0.467 C 0.422,-0.506 0.266,-0.193 0,0" /></g><g
           transform="translate(261.4802,15.2984)"
           id="g230"><path
             id="path232"
             style="fill:#424a52;fill-opacity:1;fill-rule:nonzero;stroke:none"
             d="M 0,0 V 0.673 H 4.805 V 0 H 2.803 v -5.335 h -0.8 V 0 Z" /></g><path
           id="path234"
           style="fill:#424a52;fill-opacity:1;fill-rule:nonzero;stroke:none"
           d="m 268.801,9.963 h -0.799 v 6.008 h 0.799 z" /><g
           transform="translate(272.0075,15.9712)"
           id="g236"><path
             id="path238"
             style="fill:#424a52;fill-opacity:1;fill-rule:nonzero;stroke:none"
             d="M 0,0 3.164,-4.872 H 3.181 V 0 H 3.938 V -6.008 H 3.063 l -3.139,4.821 H -0.093 V -6.008 H -0.851 V 0 Z" /></g><g
           transform="translate(281.8777,10.0347)"
           id="g240"><path
             id="path242"
             style="fill:#424a52;fill-opacity:1;fill-rule:nonzero;stroke:none"
             d="m 0,0 c -0.348,-0.137 -0.698,-0.206 -1.052,-0.206 -0.449,0 -0.849,0.083 -1.203,0.248 -0.353,0.166 -0.653,0.389 -0.9,0.669 -0.247,0.281 -0.435,0.603 -0.564,0.968 -0.13,0.365 -0.193,0.743 -0.193,1.135 0,0.439 0.059,0.855 0.181,1.25 0.12,0.396 0.299,0.743 0.538,1.04 0.238,0.297 0.536,0.534 0.892,0.71 0.356,0.177 0.773,0.266 1.249,0.266 0.325,0 0.633,-0.038 0.922,-0.114 C 0.158,5.891 0.417,5.771 0.644,5.608 0.871,5.445 1.062,5.239 1.216,4.99 1.37,4.74 1.476,4.438 1.531,4.086 H 0.732 C 0.693,4.315 0.62,4.514 0.514,4.679 0.407,4.844 0.275,4.98 0.118,5.087 -0.039,5.193 -0.217,5.273 -0.416,5.327 -0.615,5.38 -0.827,5.406 -1.052,5.406 -1.416,5.406 -1.729,5.334 -1.99,5.187 -2.251,5.042 -2.464,4.85 -2.629,4.611 -2.795,4.373 -2.917,4.101 -2.995,3.795 -3.074,3.489 -3.113,3.177 -3.113,2.857 c 0,-0.314 0.045,-0.616 0.134,-0.905 0.09,-0.289 0.222,-0.544 0.396,-0.765 0.174,-0.222 0.389,-0.399 0.644,-0.531 0.254,-0.132 0.55,-0.197 0.887,-0.197 0.315,0 0.592,0.051 0.833,0.151 0.241,0.101 0.445,0.241 0.611,0.416 0.165,0.177 0.29,0.385 0.374,0.623 0.084,0.239 0.121,0.496 0.109,0.77 H -1.043 V 3.093 H 1.591 V -0.071 H 1.086 L 0.875,0.678 C 0.64,0.363 0.348,0.138 0,0" /></g><g
           transform="translate(289.8122,15.9712)"
           id="g244"><path
             id="path246"
             style="fill:#424a52;fill-opacity:1;fill-rule:nonzero;stroke:none"
             d="m 0,0 v -0.673 h -3.349 v -1.91 h 3.121 V -3.256 H -3.349 V -5.335 H 0.025 V -6.008 H -4.148 V 0 Z" /></g><g
           transform="translate(292.6648,15.9712)"
           id="g248"><path
             id="path250"
             style="fill:#424a52;fill-opacity:1;fill-rule:nonzero;stroke:none"
             d="M 0,0 3.164,-4.872 H 3.181 V 0 H 3.938 V -6.008 H 3.063 l -3.139,4.821 H -0.093 V -6.008 H -0.851 V 0 Z" /></g></g></g></g></svg>